# xmcd CD database file
#
# Track frame offsets:
#	150
#	22185
#	40512
#	64726
#	88021
#	109654
#	132429
#	160885
#	190433
#	206524
#	230775
#	251265
#	280325
#
# Disc length: 4050 seconds
#
# Revision: 0
# Processed by: cddbd v1.5.2PL0 Copyright (c) Steve Scherf et al.
# Submitted via: CDex 1.70beta2
#
DISCID=b80fd00d
DTITLE=Tamir Hendelman - Playground
DYEAR=2009
DGENRE=Jazz
TTITLE0=Driftin`
TTITLE1=I`m Old Fashioned
TTITLE2=Playground
TTITLE3=Sycamore
TTITLE4=Tiger`s Lair
TTITLE5=It`s Only a Paper Moon
TTITLE6=It Never Entered My Mind
TTITLE7=Do Nothin` Till You Hear from Me
TTITLE8=Spring Action
TTITLE9=Singin` in the Rain
TTITLE10=I`m Getting Sentimental Over You
TTITLE11=The Cape Verdean Blues
TTITLE12=Almost Summer
EXTD=YEAR: 2009
EXTT0=
EXTT1=
EXTT2=
EXTT3=
EXTT4=
EXTT5=
EXTT6=
EXTT7=
EXTT8=
EXTT9=
EXTT10=
EXTT11=
EXTT12=
PLAYORDER=
